<svg id="Camada_1" data-name="Camada 1" xmlns="http://www.w3.org/2000/svg" viewBox="0 0 900.17 1045.54"><defs><style>.cls-1{fill:#fff;}</style></defs><path class="cls-1" d="M530.63,545.66a13.33,13.33,0,0,0,18.75,0l159-159a13.27,13.27,0,0,0,0-18.73l-159-159a13.33,13.33,0,0,0-18.75,0l-159,159a13.28,13.28,0,0,0,0,18.73Z" transform="translate(-89.91 1.55)"/><path class="cls-1" d="M727.13,349.15a13.34,13.34,0,0,0,18.76,0l79-79L553.27-1.55V162c0,7.3,4.21,17.47,9.37,22.64Z" transform="translate(-89.91 1.55)"/><path class="cls-1" d="M843.67,288.85l-281,281c-5.16,5.16-9.37,15.36-9.37,22.63V872.1L990.09,435.28Z" transform="translate(-89.91 1.55)"/><path class="cls-1" d="M526.74,162V-1.55L255.09,270.1l79,79a13.29,13.29,0,0,0,18.75,0l164.49-164.5C522.53,179.48,526.74,169.31,526.74,162Z" transform="translate(-89.91 1.55)"/><path class="cls-1" d="M526.74,592.52c0-7.27-4.21-17.47-9.38-22.63l-281-281L89.91,435.28,526.74,872.1Z" transform="translate(-89.91 1.55)"/><path class="cls-1" d="M191.57,1043V938.6h16l45.61,76.17h-8.34l44.86-76.17h16l.3,104.35H287.27V967.37H291l-37.87,63.8h-8.79l-38.76-63.8h4.48V1043Z" transform="translate(-89.91 1.55)"/><path class="cls-1" d="M356.13,1044a37.38,37.38,0,0,1-15.65-3.06,24.14,24.14,0,0,1-10.36-8.49,21.61,21.61,0,0,1-3.65-12.3,23,23,0,0,1,3.21-12.07q3.19-5.37,10.5-8.5t19.38-3.13h23.11v12.37H360.9q-9.39,0-12.74,3.06a9.91,9.91,0,0,0-3.35,7.67,9.35,9.35,0,0,0,4,7.9q4,3,11.18,3a24.2,24.2,0,0,0,12.3-3.13,18.45,18.45,0,0,0,8-9.24l3,11.18a20.77,20.77,0,0,1-9.54,10.88Q366.86,1044,356.13,1044Zm25.05-1V1026.7l-.9-3.28V995.25c0-5.47-1.66-9.71-5-12.75S366.92,978,360.16,978a41.64,41.64,0,0,0-13,2.08,34.37,34.37,0,0,0-11,5.82l-7.3-13.57a46.89,46.89,0,0,1,15.35-7.45,65.82,65.82,0,0,1,18.33-2.54q17.44,0,26.83,8.35t9.39,25.64V1043Z" transform="translate(-89.91 1.55)"/><path class="cls-1" d="M411.73,1043l34.88-45.62-.15,9.84-33.54-43.82h20.87L457.2,994.5h-7.9l23.55-31.15H493l-33.69,44,.15-10,35,45.62H473.29l-24.59-33.24,7.9,1L432.45,1043Z" transform="translate(-89.91 1.55)"/><path class="cls-1" d="M537.39,1043,491.78,938.6h21L553.49,1033H541.27l41.44-94.36h19.22L556.47,1043Z" transform="translate(-89.91 1.55)"/><path class="cls-1" d="M621.31,950.23a11.74,11.74,0,0,1-8.57-3.28,10.79,10.79,0,0,1-3.35-8.05,10.47,10.47,0,0,1,3.35-7.75,11.78,11.78,0,0,1,8.57-3.28,12.21,12.21,0,0,1,8.57,3.06,10.08,10.08,0,0,1,3.36,7.82,11.24,11.24,0,0,1-3.28,8.13A11.58,11.58,0,0,1,621.31,950.23ZM612.07,1043v-79.6h18.48V1043Z" transform="translate(-89.91 1.55)"/><path class="cls-1" d="M688.68,1044a41.92,41.92,0,0,1-20.64-5.07,36.64,36.64,0,0,1-14.38-14.23q-5.24-9.18-5.22-21.54a42.84,42.84,0,0,1,5.22-21.47A36.51,36.51,0,0,1,668,967.37a42,42,0,0,1,20.64-5.07,36.18,36.18,0,0,1,17.89,4.4,31,31,0,0,1,12.52,13.42q4.62,9,4.62,23,0,13.86-4.47,22.95a30.19,30.19,0,0,1-12.3,13.49A36.64,36.64,0,0,1,688.68,1044Zm2.24-15.8a23.54,23.54,0,0,0,12-3.06,22.56,22.56,0,0,0,8.5-8.79,26.67,26.67,0,0,0,3.2-13.19,26.11,26.11,0,0,0-3.2-13.19,22.93,22.93,0,0,0-8.5-8.65,25.06,25.06,0,0,0-24,0,22.93,22.93,0,0,0-8.5,8.65,26.11,26.11,0,0,0-3.2,13.19,26.67,26.67,0,0,0,3.2,13.19,22.56,22.56,0,0,0,8.5,8.79A23.54,23.54,0,0,0,690.92,1028.19Zm24.3,14.76v-18.79l.44-21.16-1.49-21.17V932.34H733V1043Z" transform="translate(-89.91 1.55)"/><path class="cls-1" d="M757.55,1043v-79.6h17.74v21.91l-2.09-6.41a24.7,24.7,0,0,1,11.18-12.3q7.75-4.24,18.93-4.25V980c-.69-.09-1.39-.17-2.09-.22s-1.34-.08-1.93-.08q-10.74,0-17,6.12T776,1004.49V1043Z" transform="translate(-89.91 1.55)"/><path class="cls-1" d="M854.29,1044a44.2,44.2,0,0,1-21.69-5.29,39.39,39.39,0,0,1-15.13-14.54,40.46,40.46,0,0,1,15.06-56.56,44.07,44.07,0,0,1,21.76-5.3,44.83,44.83,0,0,1,22,5.3A39.14,39.14,0,0,1,891.33,982a43.76,43.76,0,0,1,0,42.26,38.93,38.93,0,0,1-15.13,14.46A44.92,44.92,0,0,1,854.29,1044Zm0-15.8a24.21,24.21,0,0,0,12.22-3.06,21.41,21.41,0,0,0,8.43-8.79,27.72,27.72,0,0,0,3-13.19,27.14,27.14,0,0,0-3-13.19,21.73,21.73,0,0,0-8.43-8.65,25.33,25.33,0,0,0-24.14,0,22.23,22.23,0,0,0-8.5,8.65,26.51,26.51,0,0,0-3.13,13.19,27.07,27.07,0,0,0,3.13,13.19,21.89,21.89,0,0,0,8.5,8.79A23.61,23.61,0,0,0,854.29,1028.19Z" transform="translate(-89.91 1.55)"/></svg>